<?xml version="1.0" encoding="UTF-8" standalone="no"?>
<svg width="120px" height="101px" viewBox="0 0 120 101" version="1.1" xmlns="http://www.w3.org/2000/svg" xmlns:xlink="http://www.w3.org/1999/xlink" xmlns:sketch="http://www.bohemiancoding.com/sketch/ns">
    <!-- Generator: Sketch 3.5.2 (25235) - http://www.bohemiancoding.com/sketch -->
    <title>computer-screen</title>
    <desc>Created with Sketch.</desc>
    <defs></defs>
    <g id="Page-1" stroke="none" stroke-width="1" fill="none" fill-rule="evenodd" sketch:type="MSPage">
        <g id="Portfolio" sketch:type="MSArtboardGroup" transform="translate(-185.000000, -1787.000000)" fill="#77919D">
            <g id="Services" sketch:type="MSLayerGroup" transform="translate(30.000000, 1768.000000)">
                <g id="Design" transform="translate(0.000000, 19.000000)" sketch:type="MSShapeGroup">
                    <g id="computer-screen" transform="translate(155.000000, 0.000000)">
                        <path d="M113.298401,0.291092985 L113.298401,0.11588907 L112.711909,0.11588907 L7.03360522,0.11588907 L6.44711256,0.11588907 L6.44711256,0.291092985 C2.9896248,0.528743883 0.410114192,3.27954323 0,6.61820555 L0,7.20587276 L0,76.8418923 C0,78.1922349 0.351386623,79.3303752 0.937879282,80.3555628 C2.28724307,82.7314845 4.27908646,83.931876 7.03380098,83.931876 L45.6005873,83.931876 L45.6005873,93.6600979 L38.274323,93.6600979 C36.4574878,93.6600979 35.0507667,95.0730832 35.0507667,96.886199 C35.0507667,98.6993148 36.4574878,100.112104 38.274323,100.112104 L81.4715824,100.112104 C83.2884176,100.112104 84.754062,98.6991191 84.754062,96.886199 C84.754062,95.0728874 83.2886134,93.6600979 81.4715824,93.6600979 L74.1453181,93.6600979 L74.1453181,83.931876 L112.711909,83.931876 C115.467798,83.931876 117.477259,82.7314845 118.80783,80.3555628 C119.411746,79.280261 119.804437,78.1297879 119.804437,76.8418923 L119.804437,7.20606852 L119.804437,6.61840131 C119.394127,3.27954323 116.639413,0.528743883 113.298401,0.291092985 L113.298401,0.291092985 Z M113.298401,7.20606852 L113.298401,76.8420881 C113.298401,77.2547471 113.123197,77.4297553 112.711909,77.4297553 L7.03360522,77.4297553 C6.62349103,77.4297553 6.44711256,77.2547471 6.44711256,76.8420881 L6.44711256,7.20606852 L6.44711256,6.61840131 L113.298206,6.61840131 L113.298206,7.20606852 L113.298401,7.20606852 Z" id="Shape"></path>
                    </g>
                </g>
            </g>
        </g>
    </g>
</svg>