<?xml version="1.0" encoding="UTF-8" standalone="no"?>
<svg width="80px" height="80px" viewBox="0 0 80 80" version="1.1" xmlns="http://www.w3.org/2000/svg" xmlns:xlink="http://www.w3.org/1999/xlink" xmlns:sketch="http://www.bohemiancoding.com/sketch/ns">
    <!-- Generator: Sketch 3.5.2 (25235) - http://www.bohemiancoding.com/sketch -->
    <title>Facebook_5_</title>
    <desc>Created with Sketch.</desc>
    <defs></defs>
    <g id="Page-1" stroke="none" stroke-width="1" fill="none" fill-rule="evenodd" sketch:type="MSPage">
        <g id="Portfolio" sketch:type="MSArtboardGroup" transform="translate(-562.000000, -6669.000000)" fill="#43619C">
            <g id="Contact" sketch:type="MSLayerGroup" transform="translate(267.000000, 5652.000000)">
                <g id="Social" transform="translate(295.000000, 1017.000000)" sketch:type="MSShapeGroup">
                    <g id="Facebook_5_">
                        <path d="M39.5844156,0.831168831 C17.7662338,0.831168831 0.103896104,18.4935065 0.103896104,40.3116883 C0.103896104,62.1298701 17.7662338,79.7922078 39.5844156,79.7922078 C61.4025974,79.7922078 79.0649351,62.1298701 79.0649351,40.3116883 C79.0649351,18.4935065 61.4025974,0.831168831 39.5844156,0.831168831 L39.5844156,0.831168831 Z M58.8051948,56.9350649 C58.8051948,58.0779221 58.2857143,58.9090909 57.038961,58.9090909 L47.3766234,58.9090909 L47.3766234,44.3636364 L52.3636364,44.3636364 L53.0909091,38.1298701 L47.3766234,38.1298701 L47.3766234,34.9090909 C47.3766234,33.2467532 47.7922078,31.8961039 50.1818182,31.8961039 L53.6103896,31.8961039 L53.6103896,26.9090909 C52.5714286,26.8051948 50.9090909,26.7012987 48.8311688,26.7012987 C44.4675325,26.7012987 41.1428571,29.4025974 41.1428571,34.2857143 L41.1428571,38.1298701 L35.9480519,38.1298701 L35.9480519,44.3636364 L41.1428571,44.3636364 L41.1428571,58.9090909 L23.1688312,58.9090909 C22.025974,58.9090909 21.4025974,58.1818182 21.4025974,56.9350649 L21.4025974,22.961039 C21.4025974,21.8181818 22.025974,20.3636364 23.1688312,20.3636364 L57.1428571,20.3636364 C58.2857143,20.3636364 58.9090909,21.8181818 58.9090909,22.961039 L58.9090909,56.9350649 L58.8051948,56.9350649 Z" id="Shape"></path>
                    </g>
                </g>
            </g>
        </g>
    </g>
</svg>