<?xml version="1.0" encoding="UTF-8" standalone="no"?>
<svg width="156px" height="119px" viewBox="0 0 156 119" version="1.1" xmlns="http://www.w3.org/2000/svg" xmlns:xlink="http://www.w3.org/1999/xlink" xmlns:sketch="http://www.bohemiancoding.com/sketch/ns">
    <!-- Generator: Sketch 3.5.2 (25235) - http://www.bohemiancoding.com/sketch -->
    <title>programming-code-signs</title>
    <desc>Created with Sketch.</desc>
    <defs></defs>
    <g id="Page-1" stroke="none" stroke-width="1" fill="none" fill-rule="evenodd" sketch:type="MSPage">
        <g id="Portfolio" sketch:type="MSArtboardGroup" transform="translate(-1117.000000, -1768.000000)" fill="#77919D">
            <g id="Services" sketch:type="MSLayerGroup" transform="translate(30.000000, 1768.000000)">
                <g id="Front-End" transform="translate(950.000000, 0.000000)" sketch:type="MSShapeGroup">
                    <g id="programming-code-signs" transform="translate(136.000000, 0.000000)">
                        <g id="Group">
                            <path d="M156.029589,57.259726 L116.381918,17.6120548 C115.149041,16.3791781 112.967671,16.3791781 111.734795,17.6120548 L103.139178,26.2076712 C101.855342,27.4915068 101.855342,29.5726027 103.139178,30.8564384 L131.868493,59.5824658 L103.140822,88.3134247 C101.856986,89.5972603 101.856986,91.6783562 103.140822,92.9621918 L111.736438,101.557808 C112.352877,102.174247 113.189589,102.52274 114.060822,102.52274 C114.930411,102.52274 115.768767,102.174247 116.385205,101.557808 L156.029589,61.9117808 C157.313425,60.6263014 157.313425,58.5435616 156.029589,57.259726 L156.029589,57.259726 Z" id="Shape"></path>
                            <path d="M55.4942466,88.3134247 L26.769863,59.5857534 L55.4991781,30.859726 C56.1156164,30.2432877 56.4624658,29.4082192 56.4624658,28.5353425 C56.4624658,27.6641096 56.1172603,26.8273973 55.4991781,26.2109589 L46.9035616,17.6153425 C46.2871233,16.9989041 45.450411,16.6520548 44.5791781,16.6520548 C43.7079452,16.6520548 42.8712329,16.9989041 42.2547945,17.6153425 L2.60547945,57.259726 C1.32164384,58.5435616 1.32164384,60.6246575 2.60547945,61.910137 L42.2531507,101.556164 C42.869589,102.172603 43.7063014,102.521096 44.5775342,102.521096 C45.4487671,102.521096 46.2854795,102.172603 46.9019178,101.556164 L55.4975342,92.9605479 C56.7813699,91.6783562 56.7813699,89.5972603 55.4942466,88.3134247 L55.4942466,88.3134247 Z" id="Shape"></path>
                            <path d="M101.863562,4.2739726 C101.446027,3.50794521 100.742466,2.93917808 99.9073973,2.69260274 L92.9391781,0.636164384 C91.2,0.12 89.3687671,1.11780822 88.8558904,2.85863014 L56.5068493,112.408767 C56.260274,113.245479 56.3556164,114.144658 56.7715068,114.909041 C57.1873973,115.676712 57.8926027,116.243836 58.7276712,116.492055 L65.6958904,118.548493 C66.0065753,118.640548 66.3205479,118.684932 66.6279452,118.684932 C68.0465753,118.684932 69.3567123,117.757808 69.7791781,116.326027 L102.128219,6.77424658 C102.374795,5.93753425 102.281096,5.03835616 101.863562,4.2739726 L101.863562,4.2739726 Z" id="Shape"></path>
                        </g>
                    </g>
                </g>
            </g>
        </g>
    </g>
</svg>