<?xml version="1.0" encoding="UTF-8" standalone="no"?>
<svg width="80px" height="80px" viewBox="0 0 80 80" version="1.1" xmlns="http://www.w3.org/2000/svg" xmlns:xlink="http://www.w3.org/1999/xlink" xmlns:sketch="http://www.bohemiancoding.com/sketch/ns">
    <!-- Generator: Sketch 3.5.2 (25235) - http://www.bohemiancoding.com/sketch -->
    <title>Instagram_6_</title>
    <desc>Created with Sketch.</desc>
    <defs></defs>
    <g id="Page-1" stroke="none" stroke-width="1" fill="none" fill-rule="evenodd" sketch:type="MSPage">
        <g id="Portfolio" sketch:type="MSArtboardGroup" transform="translate(-802.000000, -6669.000000)">
            <g id="Contact" sketch:type="MSLayerGroup" transform="translate(267.000000, 5652.000000)">
                <g id="Social" transform="translate(295.000000, 1017.000000)" sketch:type="MSShapeGroup">
                    <g id="Instagram_6_" transform="translate(240.000000, 0.000000)">
                        <circle id="Oval" fill="#2A5B83" cx="39.5844156" cy="40.3116883" r="39.4805195"></circle>
                        <path d="M55.1688312,21.1948052 L26.1818182,21.1948052 C23.6883117,21.1948052 21.6103896,23.1688312 21.6103896,25.6623377 L21.6103896,54.7532468 C21.6103896,57.2467532 23.6883117,59.2207792 26.1818182,59.2207792 L55.1688312,59.2207792 C57.6623377,59.2207792 59.7402597,57.2467532 59.7402597,54.7532468 L59.7402597,25.6623377 C59.6363636,23.1688312 57.6623377,21.1948052 55.1688312,21.1948052 L55.1688312,21.1948052 Z M48.9350649,27.1168831 C48.9350649,26.4935065 49.4545455,25.974026 50.0779221,25.974026 L53.6103896,25.974026 C54.2337662,25.974026 54.7532468,26.4935065 54.7532468,27.1168831 L54.7532468,30.6493506 C54.7532468,31.2727273 54.2337662,31.7922078 53.6103896,31.7922078 L50.0779221,31.7922078 C49.4545455,31.7922078 48.9350649,31.2727273 48.9350649,30.6493506 L48.9350649,27.1168831 L48.9350649,27.1168831 Z M40.6233766,32.9350649 C44.6753247,32.9350649 48,36.1558442 48,40.2077922 C48,44.2597403 44.6753247,47.4805195 40.6233766,47.4805195 C36.5714286,47.4805195 33.3506494,44.2597403 33.3506494,40.2077922 C33.3506494,36.2597403 36.5714286,32.9350649 40.6233766,32.9350649 L40.6233766,32.9350649 Z M56.1038961,54.4415584 C56.1038961,55.0649351 55.5844156,55.5844156 54.961039,55.5844156 L26.3896104,55.5844156 C25.7662338,55.5844156 25.2467532,55.0649351 25.2467532,54.4415584 L25.2467532,36.5714286 L30.025974,36.5714286 C29.4025974,37.5064935 29.1948052,39.1688312 29.1948052,40.2077922 C29.1948052,46.5454545 34.3896104,51.7402597 40.8311688,51.7402597 C47.2727273,51.7402597 52.4675325,46.5454545 52.4675325,40.2077922 C52.4675325,39.1688312 52.3636364,37.5064935 51.5324675,36.5714286 L56.3116883,36.5714286 L56.3116883,54.4415584 L56.1038961,54.4415584 Z" id="Instagram_2_" fill="#FFFFFF"></path>
                    </g>
                </g>
            </g>
        </g>
    </g>
</svg>