<?xml version="1.0" encoding="UTF-8" standalone="no"?>
<svg width="115px" height="114px" viewBox="0 0 115 114" version="1.1" xmlns="http://www.w3.org/2000/svg" xmlns:xlink="http://www.w3.org/1999/xlink" xmlns:sketch="http://www.bohemiancoding.com/sketch/ns">
    <!-- Generator: Sketch 3.5.2 (25235) - http://www.bohemiancoding.com/sketch -->
    <title>test-tube</title>
    <desc>Created with Sketch.</desc>
    <defs></defs>
    <g id="Page-1" stroke="none" stroke-width="1" fill="none" fill-rule="evenodd" sketch:type="MSPage">
        <g id="Portfolio" sketch:type="MSArtboardGroup" transform="translate(-663.000000, -1768.000000)" fill="#77919D">
            <g id="Services" sketch:type="MSLayerGroup" transform="translate(30.000000, 1768.000000)">
                <g id="Resarch" transform="translate(475.000000, 0.000000)" sketch:type="MSShapeGroup">
                    <g id="test-tube" transform="translate(155.000000, 0.000000)">
                        <path d="M68.955,61.7223529 C72.4125,61.7223529 75.2175,64.3623529 75.2175,67.6164706 C75.2175,70.8705882 72.4125,73.5105882 68.955,73.5105882 C65.4975,73.5105882 62.6925,70.8705882 62.6925,67.6164706 C62.6925,64.3623529 65.4975,61.7223529 68.955,61.7223529 L68.955,61.7223529 Z M51.0525,58.6941176 C47.685,58.6941176 44.955,61.2635294 44.955,64.4329412 C44.955,67.6023529 47.685,70.1717647 51.0525,70.1717647 C54.42,70.1717647 57.15,67.6023529 57.15,64.4329412 C57.15,61.2635294 54.42,58.6941176 51.0525,58.6941176 L51.0525,58.6941176 Z M68.235,54.3176471 C68.235,51.9952941 66.2325,50.1105882 63.765,50.1105882 C61.2975,50.1105882 59.295,51.9952941 59.295,54.3176471 C59.295,56.64 61.2975,58.5247059 63.765,58.5247059 C66.2325,58.5247059 68.235,56.64 68.235,54.3176471 L68.235,54.3176471 Z M103.2825,113.343529 L17.1375,113.343529 C5.0175,113.343529 0.84,103.602353 4.635,93 C4.635,93 19.5675,66.7976471 43.9125,29.1882353 L43.9125,7.41176471 L42.4125,7.41176471 C40.23,7.41882353 38.46,5.75294118 38.46,3.71294118 C38.4675,1.67294118 40.23,0.00705882353 42.4125,0 L78.0375,0.00705882353 C80.205,0 81.975,1.66588235 81.975,3.71294118 C81.975,5.75294118 80.205,7.41176471 78.0375,7.41176471 L76.53,7.41176471 L76.53,29.1952941 C100.875,66.8047059 115.8,92.9223529 115.8,92.9223529 C119.5875,103.524706 115.4175,113.343529 103.2825,113.343529 L103.2825,113.343529 Z M96.8925,77.5129412 C92.94,70.7788235 75.2475,41.9294118 69.5325,33.12 L68.58,31.6376471 L51.8475,31.6376471 L50.895,33.12 C44.685,42.72 25.995,73.4541176 23.46,77.5129412 L96.8925,77.5129412 L96.8925,77.5129412 Z" id="Shape"></path>
                    </g>
                </g>
            </g>
        </g>
    </g>
</svg>