<?xml version="1.0" encoding="UTF-8" standalone="no"?>
<svg width="80px" height="80px" viewBox="0 0 80 80" version="1.1" xmlns="http://www.w3.org/2000/svg" xmlns:xlink="http://www.w3.org/1999/xlink" xmlns:sketch="http://www.bohemiancoding.com/sketch/ns">
    <!-- Generator: Sketch 3.5.2 (25235) - http://www.bohemiancoding.com/sketch -->
    <title>Twitter_6_</title>
    <desc>Created with Sketch.</desc>
    <defs></defs>
    <g id="Page-1" stroke="none" stroke-width="1" fill="none" fill-rule="evenodd" sketch:type="MSPage">
        <g id="Portfolio" sketch:type="MSArtboardGroup" transform="translate(-682.000000, -6669.000000)">
            <g id="Contact" sketch:type="MSLayerGroup" transform="translate(267.000000, 5652.000000)">
                <g id="Social" transform="translate(295.000000, 1017.000000)" sketch:type="MSShapeGroup">
                    <g id="Twitter_6_" transform="translate(120.000000, 0.000000)">
                        <circle id="Oval" fill="#24A9E6" cx="39.5844156" cy="40.3116883" r="39.4805195"></circle>
                        <path d="M57.5584416,24.5194805 C56,25.4545455 54.3376623,26.1818182 52.4675325,26.4935065 C51.012987,24.9350649 48.9350649,23.8961039 46.6493506,23.8961039 C42.2857143,23.8961039 38.6493506,27.5324675 38.6493506,32.1038961 C38.6493506,32.7272727 38.7532468,33.3506494 38.8571429,33.974026 C32.2077922,33.6623377 26.3896104,30.3376623 22.4415584,25.4545455 C21.7142857,26.7012987 21.4025974,28.0519481 21.4025974,29.6103896 C21.4025974,32.4155844 22.8571429,34.9090909 24.9350649,36.4675325 C23.5844156,36.4675325 22.4415584,36.0519481 21.2987013,35.4285714 L21.2987013,35.5324675 C21.2987013,39.4805195 24,42.8051948 27.7402597,43.5324675 C27.1168831,43.7402597 26.3896104,43.8441558 25.6623377,43.8441558 C25.1428571,43.8441558 24.6233766,43.8441558 24.2077922,43.7402597 C25.2467532,46.961039 28.1558442,49.3506494 31.6883117,49.4545455 C28.987013,51.6363636 25.5584416,52.987013 21.8181818,52.987013 C21.1948052,52.987013 20.5714286,52.987013 19.9480519,52.8831169 C23.4805195,55.1688312 27.6363636,56.5194805 32.2077922,56.5194805 C46.8571429,56.5194805 54.961039,44.0519481 54.961039,33.2467532 L54.961039,32.2077922 C56.5194805,31.0649351 57.8701299,29.6103896 58.9090909,27.9480519 C57.4545455,28.5714286 55.8961039,29.0909091 54.3376623,29.1948052 C55.6883117,27.9480519 56.9350649,26.3896104 57.5584416,24.5194805 L57.5584416,24.5194805 Z" id="Twitter_2_" fill="#FFFFFF"></path>
                    </g>
                </g>
            </g>
        </g>
    </g>
</svg>